<svg width="24" height="24" viewBox="0 0 24 24" fill="none" xmlns="http://www.w3.org/2000/svg" data-reactroot="">
<path fill="#7D55FF" d="M1 12C1 11.4477 1.44772 11 2 11H12C12.5523 11 13 11.4477 13 12C13 12.5523 12.5523 13 12 13H2C1.44772 13 1 12.5523 1 12Z" clip-rule="evenodd" fill-rule="evenodd" undefined="1"></path>
<path fill="#7D55FF" d="M15 12C15 11.4477 15.4477 11 16 11H22C22.5523 11 23 11.4477 23 12C23 12.5523 22.5523 13 22 13H16C15.4477 13 15 12.5523 15 12Z" clip-rule="evenodd" fill-rule="evenodd" undefined="1"></path>
<path fill="#7D55FF" d="M11 5C11 4.44772 11.4477 4 12 4H22C22.5523 4 23 4.44772 23 5C23 5.55228 22.5523 6 22 6H12C11.4477 6 11 5.55228 11 5Z" clip-rule="evenodd" fill-rule="evenodd" undefined="1"></path>
<path fill="#7D55FF" d="M1 5C1 4.44772 1.44772 4 2 4H8C8.55228 4 9 4.44772 9 5C9 5.55228 8.55228 6 8 6H2C1.44772 6 1 5.55228 1 5Z" clip-rule="evenodd" fill-rule="evenodd" undefined="1"></path>
<path fill="#7D55FF" d="M11 19C11 18.4477 11.4477 18 12 18H22C22.5523 18 23 18.4477 23 19C23 19.5523 22.5523 20 22 20H12C11.4477 20 11 19.5523 11 19Z" clip-rule="evenodd" fill-rule="evenodd" undefined="1"></path>
<path fill="#7D55FF" d="M1 19C1 18.4477 1.44772 18 2 18H8C8.55228 18 9 18.4477 9 19C9 19.5523 8.55228 20 8 20H2C1.44772 20 1 19.5523 1 19Z" clip-rule="evenodd" fill-rule="evenodd" undefined="1"></path>
<path fill="#C4B6FF" d="M8 1.5C8.55228 1.5 9 1.94772 9 2.5V7.5C9 8.05228 8.55228 8.5 8 8.5C7.44772 8.5 7 8.05228 7 7.5V2.5C7 1.94772 7.44772 1.5 8 1.5Z" clip-rule="evenodd" fill-rule="evenodd" undefined="1"></path>
<path fill="#C4B6FF" d="M16 8.5C16.5523 8.5 17 8.94772 17 9.5V14.5C17 15.0523 16.5523 15.5 16 15.5C15.4477 15.5 15 15.0523 15 14.5V9.5C15 8.94772 15.4477 8.5 16 8.5Z" clip-rule="evenodd" fill-rule="evenodd" undefined="1"></path>
<path fill="#C4B6FF" d="M8 15.5C8.55228 15.5 9 15.9477 9 16.5V21.5C9 22.0523 8.55228 22.5 8 22.5C7.44772 22.5 7 22.0523 7 21.5V16.5C7 15.9477 7.44772 15.5 8 15.5Z" clip-rule="evenodd" fill-rule="evenodd" undefined="1"></path>
</svg>
